<?xml version="1.0" encoding="UTF-8"?>
<svg version="1.1" xmlns="http://www.w3.org/2000/svg" width="310" height="310">
<path d="M0 0 C1.16932068 0.013797 2.33864136 0.02759399 3.543396 0.04180908 C5.49804779 0.08057159 5.49804779 0.08057159 7.4921875 0.12011719 C8.91927824 0.14078569 10.34638295 0.16050694 11.77349854 0.17938232 C14.93803122 0.22326536 18.10237047 0.27377473 21.26672363 0.32910156 C26.46381952 0.41995102 31.66106189 0.49759569 36.85839844 0.57324219 C42.82195781 0.66070228 48.78548901 0.74949377 54.7489624 0.84265137 C72.91485286 1.12518876 91.08117755 1.36074058 109.24781799 1.58840179 C114.25990673 1.65128183 119.27198379 1.71505721 124.28405762 1.77911377 C125.53028168 1.79504007 125.53028168 1.79504007 126.801682 1.81128812 C131.01325867 1.8651425 135.22483411 1.91909321 139.436409 1.97308731 C141.12459812 1.9947176 142.81278731 2.01634312 144.50097656 2.03796387 C145.75339748 2.05400606 145.75339748 2.05400606 147.03111982 2.07037234 C152.92860995 2.14576934 158.82611804 2.21965086 164.72363281 2.29309082 C172.02226661 2.38406964 179.32085294 2.47819752 186.61939979 2.57590938 C190.40475456 2.62650324 194.19011423 2.6757501 197.97553253 2.72136688 C202.14814332 2.77168557 206.3206431 2.82845652 210.49316406 2.88574219 C212.3005304 2.90604681 212.3005304 2.90604681 214.14440918 2.92676163 C239.09892966 3.29168053 239.09892966 3.29168053 245.3671875 8.16699219 C251.57034207 15.22659587 250.66538673 26.21991337 250.65771484 35.10498047 C250.66443207 36.24305145 250.67114929 37.38112244 250.67807007 38.55368042 C250.69692811 42.28160064 250.70096728 46.00933987 250.703125 49.73730469 C250.70955849 52.34561231 250.71628726 54.95391921 250.72329712 57.56222534 C250.73603357 63.01398893 250.73906718 68.46570401 250.73779297 73.91748047 C250.73658965 80.19959771 250.75774693 86.48137249 250.7892803 92.76340306 C250.81866833 98.83694876 250.82576702 104.91033088 250.82457352 110.98394394 C250.82692832 113.5554838 250.83574496 116.1270264 250.85123825 118.69852066 C250.87089073 122.29523315 250.86506337 125.89106552 250.85302734 129.48779297 C250.86426636 130.54154114 250.87550537 131.59528931 250.88708496 132.68096924 C250.83299564 139.05993726 250.09649926 144.80154647 246.3671875 150.16699219 C245.3771875 150.49699219 244.3871875 150.82699219 243.3671875 151.16699219 C243.3671875 151.82699219 243.3671875 152.48699219 243.3671875 153.16699219 C242.74714844 153.49570313 242.12710937 153.82441406 241.48828125 154.16308594 C235.9083971 157.16014162 230.42047389 160.280685 224.9921875 163.54199219 C224.35837158 163.92162109 223.72455566 164.30125 223.0715332 164.69238281 C219.9609078 166.56578727 216.87863224 168.47012341 213.8359375 170.45214844 C212.7325 171.16242188 211.6290625 171.87269531 210.4921875 172.60449219 C209.04199219 173.56162109 209.04199219 173.56162109 207.5625 174.53808594 C199.8442814 178.47267904 192.06067696 178.40977327 183.5546875 178.22949219 C181.52741594 178.19500175 179.50006425 178.16487486 177.47265625 178.13964844 C176.58731201 178.12168213 175.70196777 178.10371582 174.78979492 178.08520508 C172.49042146 178.16283182 170.5657613 178.51524358 168.3671875 179.16699219 C168.3671875 179.82699219 168.3671875 180.48699219 168.3671875 181.16699219 C166.1971612 182.75925467 163.92086522 184.12431121 161.62890625 185.53417969 C159.27849549 187.231022 157.81060028 188.65456721 156.3671875 191.16699219 C156.6971875 192.15699219 157.0271875 193.14699219 157.3671875 194.16699219 C158.0271875 194.49699219 158.6871875 194.82699219 159.3671875 195.16699219 C159.3671875 195.82699219 159.3671875 196.48699219 159.3671875 197.16699219 C160.0271875 197.16699219 160.6871875 197.16699219 161.3671875 197.16699219 C165.46750607 204.9948731 166.73036749 211.17018291 166.7421875 219.91699219 C166.76667969 220.85542969 166.79117188 221.79386719 166.81640625 222.76074219 C166.85182056 231.3073946 164.47494598 239.20186699 159.3671875 246.16699219 C158.7071875 246.16699219 158.0471875 246.16699219 157.3671875 246.16699219 C157.3671875 246.82699219 157.3671875 247.48699219 157.3671875 248.16699219 C151.6171875 251.16699219 151.6171875 251.16699219 149.3671875 251.16699219 C149.3671875 258.09699219 149.3671875 265.02699219 149.3671875 272.16699219 C151.2440625 272.08449219 153.1209375 272.00199219 155.0546875 271.91699219 C159.11414369 271.91221073 160.93162751 271.9143674 164.4921875 273.97949219 C167.36008943 277.32537777 168.62118862 279.24390906 168.5625 283.61621094 C168.55283203 284.88754883 168.55283203 284.88754883 168.54296875 286.18457031 C168.52621094 287.06564453 168.50945312 287.94671875 168.4921875 288.85449219 C168.48316406 289.74716797 168.47414062 290.63984375 168.46484375 291.55957031 C168.44128498 293.76231533 168.40839079 295.96451807 168.3671875 298.16699219 C170.2853125 298.36228516 170.2853125 298.36228516 172.2421875 298.56152344 C176.1171875 298.95605469 176.1171875 298.95605469 178.3671875 300.85449219 C179.3671875 303.16699219 179.3671875 303.16699219 179.3671875 309.16699219 C132.1771875 309.16699219 84.9871875 309.16699219 36.3671875 309.16699219 C36.3671875 302.16699219 36.3671875 302.16699219 37.4921875 300.35449219 C39.97149651 298.78426315 42.58264168 298.06121625 45.3671875 297.16699219 C45.38136719 296.00941406 45.39554687 294.85183594 45.41015625 293.65917969 C45.45708007 292.12007847 45.50532732 290.5810172 45.5546875 289.04199219 C45.56338867 287.90117188 45.56338867 287.90117188 45.57226562 286.73730469 C45.79960135 280.8770949 47.16014929 278.26807536 51.3671875 274.16699219 C55.93355781 271.12274531 59.93434209 272.03916053 65.3671875 272.16699219 C65.3671875 267.21699219 65.3671875 262.26699219 65.3671875 257.16699219 C63.0571875 256.83699219 60.7471875 256.50699219 58.3671875 256.16699219 C54.9296875 254.22949219 54.9296875 254.22949219 52.3671875 252.16699219 C52.3671875 251.50699219 52.3671875 250.84699219 52.3671875 250.16699219 C51.7071875 250.16699219 51.0471875 250.16699219 50.3671875 250.16699219 C50.3671875 249.50699219 50.3671875 248.84699219 50.3671875 248.16699219 C49.77035156 247.9259375 49.17351562 247.68488281 48.55859375 247.43652344 C42.80690546 244.1044402 40.17543932 236.48120972 38.4921875 230.35449219 C35.87605941 217.211563 35.24211614 200.4171349 41.3671875 188.16699219 C40.5421875 187.98136719 39.7171875 187.79574219 38.8671875 187.60449219 C32.98474478 185.18848893 28.69303077 181.3214875 25.3671875 175.91699219 C24.3671875 173.16699219 24.3671875 173.16699219 24.3671875 170.16699219 C23.52188477 170.17496826 22.67658203 170.18294434 21.80566406 170.19116211 C13.21626189 170.23667436 4.69198424 170.01188341 -3.8828125 169.47949219 C-5.07132813 169.42599609 -6.25984375 169.3725 -7.484375 169.31738281 C-17.6812467 168.67023036 -25.35863724 165.96109031 -32.7578125 158.72949219 C-36.40470622 155.26725131 -40.10438639 152.22327196 -44.234375 149.35839844 C-44.69585937 148.96523437 -45.15734375 148.57207031 -45.6328125 148.16699219 C-45.6328125 147.50699219 -45.6328125 146.84699219 -45.6328125 146.16699219 C-46.2103125 145.96074219 -46.7878125 145.75449219 -47.3828125 145.54199219 C-50.56882846 143.59498243 -51.84842 141.42812331 -53.6328125 138.16699219 C-54.57926587 133.18748633 -54.75274102 128.33275304 -54.67041016 123.2824707 C-54.66240891 122.52686356 -54.65440765 121.77125641 -54.64616394 120.99275208 C-54.61843671 118.51037025 -54.58286678 116.02817314 -54.546875 113.54589844 C-54.52506145 111.80061786 -54.50361394 110.05533268 -54.48251343 108.31004333 C-54.43710189 104.65268588 -54.38791989 100.99540459 -54.3359375 97.33813477 C-54.27015493 92.69566346 -54.21263974 88.05313666 -54.15790749 83.41052341 C-54.11460171 79.80264632 -54.0672948 76.19482986 -54.01881027 72.58701897 C-53.996209 70.87815686 -53.97467168 69.16928028 -53.95430374 67.46039009 C-53.88795807 62.02783264 -53.77879856 56.59796576 -53.6328125 51.16699219 C-53.61659599 50.41813122 -53.60037949 49.66927025 -53.58367157 48.89771652 C-53.53018123 46.7191815 -53.44965512 44.54331613 -53.36083984 42.3659668 C-53.3176059 41.12036484 -53.27437195 39.87476288 -53.22982788 38.59141541 C-52.4068205 33.87072365 -50.31210101 30.69039738 -46.78125 27.48730469 C-41.85503472 24.16699219 -41.85503472 24.16699219 -39.6328125 24.16699219 C-39.6328125 23.50699219 -39.6328125 22.84699219 -39.6328125 22.16699219 C-37.6528125 21.50699219 -35.6728125 20.84699219 -33.6328125 20.16699219 C-33.6328125 19.50699219 -33.6328125 18.84699219 -33.6328125 18.16699219 C-31.53520838 16.68295238 -29.44515923 15.31944542 -27.2578125 13.97949219 C-25.9702748 13.1739231 -24.68382306 12.36661585 -23.3984375 11.55761719 C-22.4403418 10.95530273 -22.4403418 10.95530273 -21.46289062 10.34082031 C-18.13168357 8.20415496 -14.92674542 5.89281749 -11.71875 3.57714844 C-7.64450088 0.82283396 -4.97555614 -0.08035743 0 0 Z M3.3671875 16.16699219 C3.3671875 56.09699219 3.3671875 96.02699219 3.3671875 137.16699219 C33.9364922 137.52521992 33.9364922 137.52521992 64.50585938 137.87792969 C77.01816826 138.02107971 89.53046871 138.16478198 102.04272461 138.3125 C157.81866952 139.00057215 157.81866952 139.00057215 213.59765625 139.29199219 C215.18629706 139.29587448 215.18629706 139.29587448 216.80703163 139.29983521 C219.66200116 139.30550357 222.51685687 139.30425429 225.37182617 139.29980469 C226.18755033 139.3017836 227.0032745 139.30376251 227.84371758 139.30580139 C231.40065567 139.61928274 231.40065567 139.61928274 234.3671875 138.16699219 C234.45590023 135.13721415 234.482381 132.13032197 234.46484375 129.10058594 C234.4634288 128.19196304 234.46201385 127.28334015 234.46055603 126.34718323 C234.45493943 123.43291998 234.44238415 120.51873238 234.4296875 117.60449219 C234.42467464 115.63379017 234.42011136 113.66308695 234.41601562 111.69238281 C234.40496461 106.8505566 234.38768888 102.00878724 234.3671875 97.16699219 C234.06321045 97.78340576 233.7592334 98.39981934 233.44604492 99.03491211 C227.90223476 109.99080579 219.8130776 118.97632259 208.203125 123.36230469 C194.16101749 127.81468024 181.58222939 127.39360041 168.3515625 120.62402344 C161.91020472 116.77856804 155.13065565 111.99935296 152.46484375 104.69433594 C151.38977928 101.78289526 150.72892971 100.22283255 148.3671875 98.16699219 C143.13507346 96.88053735 137.63385176 97.07323323 132.28076172 97.22949219 C130.3671875 97.16699219 130.3671875 97.16699219 127.3671875 96.16699219 C126.03271484 94.50878906 126.03271484 94.50878906 124.703125 92.38574219 C124.22101563 91.62648438 123.73890625 90.86722656 123.2421875 90.08496094 C122.7471875 89.28703125 122.2521875 88.48910156 121.7421875 87.66699219 C120.75084009 86.09354591 119.75869446 84.52060217 118.765625 82.94824219 C118.32911621 82.24763672 117.89260742 81.54703125 117.44287109 80.82519531 C116.47185081 79.20219029 116.47185081 79.20219029 115.3671875 78.16699219 C113.01405195 78.09427477 110.65885082 78.08328351 108.3046875 78.10449219 C107.01433594 78.11351562 105.72398437 78.12253906 104.39453125 78.13183594 C102.89599609 78.14923828 102.89599609 78.14923828 101.3671875 78.16699219 C101.23183594 79.08738281 101.09648437 80.00777344 100.95703125 80.95605469 C99.47860658 89.64954584 97.08699296 96.58355425 92.890625 104.33886719 C91.2865439 107.12308388 91.2865439 107.12308388 90.3671875 110.16699219 C89.7071875 110.16699219 89.0471875 110.16699219 88.3671875 110.16699219 C88.3671875 110.82699219 88.3671875 111.48699219 88.3671875 112.16699219 C87.7071875 112.16699219 87.0471875 112.16699219 86.3671875 112.16699219 C86.3671875 112.82699219 86.3671875 113.48699219 86.3671875 114.16699219 C85.78453125 114.44671875 85.201875 114.72644531 84.6015625 115.01464844 C82.49950928 116.09874931 80.58643766 117.29843991 78.6171875 118.60449219 C67.4541447 125.61240239 54.63025481 126.71882036 41.90234375 123.84667969 C32.92617488 121.44012594 26.19217894 117.5369842 19.3671875 111.16699219 C19.0371875 110.50699219 18.7071875 109.84699219 18.3671875 109.16699219 C17.7071875 109.16699219 17.0471875 109.16699219 16.3671875 109.16699219 C16.1196875 108.50699219 15.8721875 107.84699219 15.6171875 107.16699219 C14.35917353 104.14775865 12.91011264 101.30573522 11.3671875 98.42480469 C6.70324081 87.89448755 6.26455238 72.85138852 9.9921875 61.91699219 C11.11328125 59.44433594 11.11328125 59.44433594 12.3671875 57.16699219 C12.79128906 56.38453125 13.21539062 55.60207031 13.65234375 54.79589844 C20.11326366 44.12368254 30.15324607 36.9688925 42.0390625 33.35449219 C56.75902543 30.0630719 69.67512947 33.44462628 82.3671875 41.16699219 C90.74240972 47.36390549 94.93929514 56.00957992 99.3671875 65.16699219 C100.38872925 65.14342651 100.38872925 65.14342651 101.4309082 65.11938477 C104.51375031 65.05705997 107.59645994 65.0180096 110.6796875 64.97949219 C111.75154297 64.95435547 112.82339844 64.92921875 113.92773438 64.90332031 C114.95576172 64.89365234 115.98378906 64.88398437 117.04296875 64.87402344 C117.99083252 64.85831299 118.93869629 64.84260254 119.9152832 64.82641602 C122.80591869 65.22793314 123.49801147 66.02377863 125.3671875 68.16699219 C126.0271875 68.16699219 126.6871875 68.16699219 127.3671875 68.16699219 C127.76550781 69.47023438 127.76550781 69.47023438 128.171875 70.79980469 C130.06545861 76.13401733 132.56712493 80.9397908 136.3671875 85.16699219 C139.52988197 86.23243891 141.00351279 85.86292489 144.3671875 85.16699219 C146.07670015 83.45747954 145.50088017 81.2827617 145.55517578 78.99926758 C145.94855135 65.39373861 150.53585058 55.27603609 160.01953125 45.45605469 C170.19982837 36.01832042 182.43581605 33.5457089 195.8515625 33.86230469 C207.64639631 34.45745685 217.52103269 39.85057996 225.50390625 48.47558594 C228.70776619 52.45858162 231.32530642 56.48267677 233.3671875 61.16699219 C233.6971875 61.16699219 234.0271875 61.16699219 234.3671875 61.16699219 C234.3671875 47.30699219 234.3671875 33.44699219 234.3671875 19.16699219 C217.61736368 18.84466365 200.86737711 18.53223364 184.1171875 18.22949219 C182.85060177 18.2065937 181.58401604 18.18369522 180.27904892 18.16010284 C148.82118568 17.59396457 117.36399423 17.10572714 85.90234375 16.81152344 C84.67036192 16.79997412 83.43838009 16.7884248 82.16906548 16.7765255 C55.90210542 16.53495054 29.63450244 16.36084691 3.3671875 16.16699219 Z M-36.7590332 39.85083008 C-39.32904789 43.02760263 -39.09205116 45.07191123 -39.0234375 49.12011719 C-39.01777771 49.78033875 -39.01211792 50.4405603 -39.00628662 51.12078857 C-38.9839748 53.22027482 -38.93379564 55.31802588 -38.8828125 57.41699219 C-38.86274044 58.84405079 -38.84449089 60.27113627 -38.828125 61.69824219 C-38.78412943 65.18838512 -38.71514126 68.67751918 -38.6328125 72.16699219 C-37.71757813 72.21597656 -36.80234375 72.26496094 -35.859375 72.31542969 C-34.67085937 72.39019531 -33.48234375 72.46496094 -32.2578125 72.54199219 C-30.48277344 72.64640625 -30.48277344 72.64640625 -28.671875 72.75292969 C-25.6328125 73.16699219 -25.6328125 73.16699219 -23.6328125 75.16699219 C-23.43429148 77.87622019 -23.35441773 80.46002398 -23.3828125 83.16699219 C-23.37507813 83.90433594 -23.36734375 84.64167969 -23.359375 85.40136719 C-23.3794929 90.91367259 -23.3794929 90.91367259 -25.6328125 93.16699219 C-28.015625 93.36230469 -28.015625 93.36230469 -30.7578125 93.29199219 C-31.66789062 93.27394531 -32.57796875 93.25589844 -33.515625 93.23730469 C-34.21429688 93.21410156 -34.91296875 93.19089844 -35.6328125 93.16699219 C-36.2928125 90.85699219 -36.9528125 88.54699219 -37.6328125 86.16699219 C-37.9628125 86.16699219 -38.2928125 86.16699219 -38.6328125 86.16699219 C-38.6328125 102.00699219 -38.6328125 117.84699219 -38.6328125 134.16699219 C-37.9728125 134.16699219 -37.3128125 134.16699219 -36.6328125 134.16699219 C-36.6328125 134.82699219 -36.6328125 135.48699219 -36.6328125 136.16699219 C-33.15282743 139.80332758 -33.15282743 139.80332758 -28.6328125 141.16699219 C-28.6328125 141.82699219 -28.6328125 142.48699219 -28.6328125 143.16699219 C-27.6428125 143.82699219 -26.6528125 144.48699219 -25.6328125 145.16699219 C-19.69308734 144.24318612 -19.69308734 144.24318612 -11.6328125 139.16699219 C-11.3028125 100.88699219 -10.9728125 62.60699219 -10.6328125 23.16699219 C-18.86767086 23.16699219 -30.44813141 34.85297847 -36.7590332 39.85083008 Z M35.3671875 52.16699219 C34.3771875 52.82699219 33.3871875 53.48699219 32.3671875 54.16699219 C32.3671875 54.82699219 32.3671875 55.48699219 32.3671875 56.16699219 C31.7071875 56.16699219 31.0471875 56.16699219 30.3671875 56.16699219 C30.3671875 56.82699219 30.3671875 57.48699219 30.3671875 58.16699219 C29.7071875 58.16699219 29.0471875 58.16699219 28.3671875 58.16699219 C22.63617943 68.84154157 19.49927565 77.50337618 23.0859375 89.58886719 C26.58186731 98.32869171 32.86474086 105.12054841 41.3671875 109.16699219 C50.60265889 112.73057812 60.32466304 111.8492573 69.3671875 108.16699219 C71.64426409 106.9830938 73.36128827 105.80338366 75.3671875 104.16699219 C75.3671875 103.50699219 75.3671875 102.84699219 75.3671875 102.16699219 C76.0271875 102.16699219 76.6871875 102.16699219 77.3671875 102.16699219 C77.3671875 101.50699219 77.3671875 100.84699219 77.3671875 100.16699219 C78.0271875 100.16699219 78.6871875 100.16699219 79.3671875 100.16699219 C80.3574528 98.46506834 81.33391956 96.75511208 82.3046875 95.04199219 C82.84996094 94.09066406 83.39523438 93.13933594 83.95703125 92.15917969 C87.6653755 84.29050463 87.20154088 75.22252286 84.3671875 67.16699219 C83.41644912 64.80637837 82.40999798 62.48961552 81.3671875 60.16699219 C80.7071875 60.16699219 80.0471875 60.16699219 79.3671875 60.16699219 C79.1609375 59.61011719 78.9546875 59.05324219 78.7421875 58.47949219 C75.50388766 53.03326064 70.2162516 50.04281793 64.40625 47.90136719 C54.09908443 45.41068965 44.27509161 46.18000979 35.3671875 52.16699219 Z M167.3671875 59.16699219 C166.3153125 60.28074219 166.3153125 60.28074219 165.2421875 61.41699219 C160.80155145 67.92992506 158.8557848 76.36810095 159.3671875 84.16699219 C160.63450026 88.96467619 162.4497082 93.59454156 164.3671875 98.16699219 C165.0271875 98.16699219 165.6871875 98.16699219 166.3671875 98.16699219 C166.7384375 99.09511719 166.7384375 99.09511719 167.1171875 100.04199219 C168.57347389 102.51767906 169.74531256 103.11824221 172.3671875 104.16699219 C172.3671875 104.82699219 172.3671875 105.48699219 172.3671875 106.16699219 C172.99367187 106.44414063 173.62015625 106.72128906 174.265625 107.00683594 C175.08289063 107.3690625 175.90015625 107.73128906 176.7421875 108.10449219 C177.96035156 108.64396484 177.96035156 108.64396484 179.203125 109.19433594 C180.60402535 109.82398249 181.99344034 110.48011861 183.3671875 111.16699219 C192.43013887 111.80611361 200.37207629 112.02255973 208.3671875 107.16699219 C209.0271875 106.83699219 209.6871875 106.50699219 210.3671875 106.16699219 C210.3671875 105.50699219 210.3671875 104.84699219 210.3671875 104.16699219 C211.0271875 104.16699219 211.6871875 104.16699219 212.3671875 104.16699219 C212.3671875 103.50699219 212.3671875 102.84699219 212.3671875 102.16699219 C213.0271875 102.16699219 213.6871875 102.16699219 214.3671875 102.16699219 C214.3671875 101.50699219 214.3671875 100.84699219 214.3671875 100.16699219 C215.0271875 100.16699219 215.6871875 100.16699219 216.3671875 100.16699219 C217.18730062 98.60847463 217.99794963 97.04497502 218.8046875 95.47949219 C219.25714844 94.609375 219.70960938 93.73925781 220.17578125 92.84277344 C224.31034633 83.55694695 222.69837563 73.38349388 219.2421875 64.16699219 C218.9534375 63.50699219 218.6646875 62.84699219 218.3671875 62.16699219 C217.7071875 62.16699219 217.0471875 62.16699219 216.3671875 62.16699219 C216.1609375 61.61011719 215.9546875 61.05324219 215.7421875 60.47949219 C212.40719531 54.87064168 206.34077521 51.43719241 200.3671875 49.16699219 C197.38484589 48.61689053 194.51925618 48.545774 191.4921875 48.60449219 C190.70497314 48.61327393 189.91775879 48.62205566 189.10668945 48.63110352 C179.98254949 48.94994523 173.33189559 52.14968855 167.3671875 59.16699219 Z M-7.6328125 154.16699219 C3.76689558 155.64473212 14.87197875 156.44889104 26.3671875 156.16699219 C26.3671875 155.50699219 26.3671875 154.84699219 26.3671875 154.16699219 C27.3571875 153.83699219 28.3471875 153.50699219 29.3671875 153.16699219 C29.3671875 152.83699219 29.3671875 152.50699219 29.3671875 152.16699219 C22.06566831 151.30088095 14.84264189 150.95507744 7.4921875 150.91699219 C6.47382812 150.89636719 5.45546875 150.87574219 4.40625 150.85449219 C3.4265625 150.84933594 2.446875 150.84417969 1.4375 150.83886719 C0.55852051 150.82952148 -0.32045898 150.82017578 -1.22607422 150.81054688 C-4.09862568 151.23598055 -5.4768101 152.27181166 -7.6328125 154.16699219 Z M49.4921875 155.79199219 C48.82445313 156.33339844 48.15671875 156.87480469 47.46875 157.43261719 C46.77523437 158.00496094 46.08171875 158.57730469 45.3671875 159.16699219 C43.87271412 160.29932355 42.37291417 161.42466851 40.8671875 162.54199219 C40.196875 163.04472656 39.5265625 163.54746094 38.8359375 164.06542969 C38.10890625 164.61070312 38.10890625 164.61070312 37.3671875 165.16699219 C38.68231847 169.11238509 40.07306375 171.58511141 43.3671875 174.16699219 C46.5411985 175.94355991 46.5411985 175.94355991 50.3671875 176.16699219 C53.68022512 174.8217301 56.33865438 173.12389051 59.3671875 171.16699219 C59.3671875 165.22699219 59.3671875 159.28699219 59.3671875 153.16699219 C53.50435028 152.92601238 53.50435028 152.92601238 49.4921875 155.79199219 Z M74.3671875 153.16699219 C74.3671875 158.11699219 74.3671875 163.06699219 74.3671875 168.16699219 C81.88879295 168.29969941 89.41042798 168.43046106 96.93212032 168.55814362 C100.42783073 168.61755468 103.92352481 168.67769596 107.41918945 168.73974609 C115.4512217 168.88185338 123.48318998 169.0076982 131.51580811 169.11279297 C134.06524795 169.14867041 136.61461819 169.18993344 139.16387939 169.23681641 C142.67042035 169.30055161 146.17671575 169.34550989 149.68359375 169.38574219 C151.24895119 169.4206073 151.24895119 169.4206073 152.84593201 169.45617676 C153.79855423 169.46322632 154.75117645 169.47027588 155.73266602 169.47753906 C156.56024918 169.49006714 157.38783234 169.50259521 158.24049377 169.51550293 C160.81101039 169.30661705 160.81101039 169.30661705 163.3671875 166.16699219 C163.3671875 161.87699219 163.3671875 157.58699219 163.3671875 153.16699219 C133.9971875 153.16699219 104.6271875 153.16699219 74.3671875 153.16699219 Z M178.3671875 153.16699219 C178.17312272 154.81206437 177.98710815 156.45808813 177.8046875 158.10449219 C177.70027344 159.02101562 177.59585938 159.93753906 177.48828125 160.88183594 C177.44832031 161.6359375 177.40835938 162.39003906 177.3671875 163.16699219 C179.98674192 165.78654661 186.90813774 164.59514007 190.41894531 164.63769531 C198.35208669 164.52999279 203.75183401 162.68479457 210.3671875 158.16699219 C210.3671875 157.50699219 210.3671875 156.84699219 210.3671875 156.16699219 C211.6871875 155.83699219 213.0071875 155.50699219 214.3671875 155.16699219 C214.3671875 154.83699219 214.3671875 154.50699219 214.3671875 154.16699219 C202.34678886 153.22684928 190.41995604 153.05584985 178.3671875 153.16699219 Z M89.3671875 183.16699219 C89.6971875 184.15699219 90.0271875 185.14699219 90.3671875 186.16699219 C91.0271875 186.16699219 91.6871875 186.16699219 92.3671875 186.16699219 C92.5115625 186.76511719 92.6559375 187.36324219 92.8046875 187.97949219 C93.2544314 189.72849623 93.79611091 191.45376242 94.3671875 193.16699219 C109.5471875 193.49699219 124.7271875 193.82699219 140.3671875 194.16699219 C143.09169024 188.80651867 143.09169024 188.80651867 144.3671875 183.16699219 C126.2171875 183.16699219 108.0671875 183.16699219 89.3671875 183.16699219 Z M58.3671875 187.16699219 C58.3671875 187.82699219 58.3671875 188.48699219 58.3671875 189.16699219 C57.7071875 189.16699219 57.0471875 189.16699219 56.3671875 189.16699219 C55.67008019 190.45349925 54.98475874 191.74639884 54.3046875 193.04199219 C53.92183594 193.76128906 53.53898437 194.48058594 53.14453125 195.22167969 C52.88800781 195.86363281 52.63148437 196.50558594 52.3671875 197.16699219 C52.6971875 197.82699219 53.0271875 198.48699219 53.3671875 199.16699219 C57.9871875 199.16699219 62.6071875 199.16699219 67.3671875 199.16699219 C68.44140625 206.68652344 68.44140625 206.68652344 68.3671875 209.16699219 C66.890625 210.78027344 66.890625 210.78027344 65.3671875 212.16699219 C65.32398503 214.49992553 65.32696359 216.83400559 65.3671875 219.16699219 C63.9155746 223.61860509 63.9155746 223.61860509 62.3671875 225.16699219 C54.84479944 225.40579816 54.84479944 225.40579816 52.3671875 224.16699219 C54.08535635 231.23602973 56.87248064 236.31941354 62.3671875 241.16699219 C66.21781048 243.33296761 67.59773512 243.3730955 71.8671875 242.22949219 C76.82978741 239.70427542 80.17279173 235.93687498 82.37109375 230.83886719 C83.19921128 228.29450608 83.82658979 225.78711539 84.3671875 223.16699219 C84.53347656 222.37292969 84.69976562 221.57886719 84.87109375 220.76074219 C86.61206544 209.4719152 82.68521022 198.64402627 76.4921875 189.35449219 C73.99220764 186.78098351 71.68286201 185.50737125 68.3671875 184.16699219 C64.50023072 184.16699219 61.8583423 185.5860919 58.3671875 187.16699219 Z M98.3671875 208.16699219 C98.31820312 209.38515625 98.26921875 210.60332031 98.21875 211.85839844 C98.14366477 213.48211656 98.06811948 215.10581345 97.9921875 216.72949219 C97.96125 217.52935547 97.9303125 218.32921875 97.8984375 219.15332031 C97.65529834 224.11741157 96.82126807 228.38507682 95.3671875 233.16699219 C95.3671875 234.48699219 95.3671875 235.80699219 95.3671875 237.16699219 C102.55700652 237.26835436 109.74664152 237.33844179 116.93701172 237.38671875 C119.38337083 237.40684271 121.82968179 237.43414478 124.27587891 237.46875 C127.79081091 237.51723182 131.30510734 237.53995347 134.8203125 237.55761719 C135.9152301 237.57826233 137.01014771 237.59890747 138.13824463 237.62017822 C139.66937897 237.62063141 139.66937897 237.62063141 141.23144531 237.62109375 C142.12857239 237.6299762 143.02569946 237.63885864 143.95001221 237.64801025 C147.14624302 237.01196008 148.31384717 235.63621882 150.3671875 233.16699219 C154.44850488 225.64877596 153.67040323 217.1178191 151.3671875 209.16699219 C150.35527112 207.93327238 150.35527112 207.93327238 148.27281189 208.04673767 C147.35125809 208.04895828 146.42970428 208.05117889 145.48022461 208.0534668 C143.91871925 208.05358009 143.91871925 208.05358009 142.32566833 208.05369568 C140.62725548 208.06143761 140.62725548 208.06143761 138.89453125 208.06933594 C137.74175186 208.07075089 136.58897247 208.07216583 135.40126038 208.07362366 C131.70237686 208.07924214 128.00355286 208.09179777 124.3046875 208.10449219 C121.80403733 208.10950481 119.30338621 208.11406812 116.80273438 208.11816406 C110.65753162 208.12921757 104.51236381 208.14597367 98.3671875 208.16699219 Z M51.3671875 217.16699219 C51.3671875 219.14699219 51.3671875 221.12699219 51.3671875 223.16699219 C51.6971875 223.16699219 52.0271875 223.16699219 52.3671875 223.16699219 C52.3671875 221.18699219 52.3671875 219.20699219 52.3671875 217.16699219 C52.0371875 217.16699219 51.7071875 217.16699219 51.3671875 217.16699219 Z M79.3671875 254.16699219 C78.98859191 257.10792271 78.88943136 259.44344176 79.0546875 262.35449219 C79.07724609 263.10408203 79.09980469 263.85367187 79.12304688 264.62597656 C79.18189593 266.47383688 79.27157812 268.32066886 79.3671875 270.16699219 C87.03929952 270.19225823 94.7114009 270.20982342 102.38354492 270.22192383 C104.99585369 270.22696595 107.60815961 270.23379944 110.22045898 270.24243164 C113.96599018 270.25450255 117.71148422 270.26022154 121.45703125 270.26464844 C123.22106544 270.27239037 123.22106544 270.27239037 125.02073669 270.2802887 C126.10178177 270.28036423 127.18282684 270.28043976 128.29663086 270.28051758 C129.25371445 270.28273819 130.21079803 270.2849588 131.19688416 270.2872467 C133.34636374 270.41011718 133.34636374 270.41011718 134.3671875 269.16699219 C134.46705725 266.32364171 134.50596631 263.51002056 134.4921875 260.66699219 C134.49605469 259.8690625 134.49992187 259.07113281 134.50390625 258.24902344 C134.8761836 254.39859899 134.8761836 254.39859899 133.3671875 251.16699219 C131.85940895 251.05822339 130.3466092 251.01795713 128.83496094 251.00585938 C127.38775665 250.99144806 127.38775665 250.99144806 125.91131592 250.97674561 C124.86034729 250.97249573 123.80937866 250.96824585 122.7265625 250.96386719 C121.65222961 250.95816711 120.57789673 250.95246704 119.4710083 250.94659424 C117.19113149 250.93712593 114.91124088 250.93060303 112.63134766 250.92675781 C109.14591437 250.91707202 105.66107547 250.8860735 102.17578125 250.85449219 C99.96354518 250.84796051 97.75130488 250.84271068 95.5390625 250.83886719 C94.4961908 250.82652039 93.45331909 250.81417358 92.37884521 250.80145264 C85.19156494 250.58613692 85.19156494 250.58613692 79.3671875 254.16699219 Z M60.3671875 286.16699219 C60.3671875 289.79699219 60.3671875 293.42699219 60.3671875 297.16699219 C61.40738037 297.09625488 62.44757324 297.02551758 63.51928711 296.95263672 C77.06835969 296.10125614 90.59227858 296.01361533 104.16479492 296.03662109 C107.92696145 296.0419883 111.68900891 296.03663961 115.45117188 296.03027344 C128.45753953 296.02706302 141.39289134 296.22030956 154.3671875 297.16699219 C154.3671875 293.53699219 154.3671875 289.90699219 154.3671875 286.16699219 C124.33225881 280.49372788 90.65603629 283.72203574 60.3671875 286.16699219 Z " fill="#0E0E0E" transform="translate(55.6328125,0.8330078125)"/>
<path d="M0 0 C4.8060586 4.23390877 9.11950247 8.68166676 10.03125 15.23046875 C10.23899402 22.47554161 9.48993842 26.93865773 5.1328125 32.80078125 C4.38644531 33.54908203 4.38644531 33.54908203 3.625 34.3125 C2.965 34.3125 2.305 34.3125 1.625 34.3125 C1.625 34.9725 1.625 35.6325 1.625 36.3125 C-6.84391172 40.43203326 -12.4227899 40.62080529 -21.375 38.3125 C-21.375 37.6525 -21.375 36.9925 -21.375 36.3125 C-21.931875 36.27125 -22.48875 36.23 -23.0625 36.1875 C-27.09801757 34.66054741 -29.26753526 31.07907871 -31.50390625 27.51171875 C-33.73311936 21.88370538 -33.06255349 14.63299303 -31.375 8.9375 C-23.47223398 -1.4348804 -12.33854672 -6.16927336 0 0 Z " fill="#0B0B0B" transform="translate(121.375,61.6875)"/>
<path d="M0 0 C0.556875 0.28875 1.11375 0.5775 1.6875 0.875 C1.6875 1.535 1.6875 2.195 1.6875 2.875 C2.3475 2.875 3.0075 2.875 3.6875 2.875 C8.77899218 8.46322312 9.89775192 13.3723261 9.6875 20.875 C8.80587794 25.43004728 7.42584128 29.10978074 4.6875 32.875 C4.0275 32.875 3.3675 32.875 2.6875 32.875 C2.6875 33.535 2.6875 34.195 2.6875 34.875 C-3.7916211 39.81147322 -10.37184514 39.84201183 -18.3125 38.875 C-21.1457828 37.83163236 -22.88936663 36.72119685 -25.3125 34.875 C-25.3125 34.215 -25.3125 33.555 -25.3125 32.875 C-25.9725 32.875 -26.6325 32.875 -27.3125 32.875 C-31.60299908 27.93442531 -32.25125324 23.3161181 -32.3125 16.875 C-31.9778562 12.72541694 -31.46443986 9.46156644 -29.3125 5.875 C-28.6525 5.875 -27.9925 5.875 -27.3125 5.875 C-27.126875 5.2975 -26.94125 4.72 -26.75 4.125 C-20.68829067 -5.36289286 -8.76915886 -4.26607728 0 0 Z " fill="#080808" transform="translate(258.3125,63.125)"/>
<path d="M0 0 C1.46953125 -0.03867188 1.46953125 -0.03867188 2.96875 -0.078125 C3.8040625 0.03015625 4.639375 0.1384375 5.5 0.25 C7.72264871 3.58397306 7.79675463 4.84514891 7.8125 8.75 C7.82925781 9.7090625 7.84601563 10.668125 7.86328125 11.65625 C7.5 14.25 7.5 14.25 6.296875 16.078125 C3.89741616 17.64298946 2.28156407 17.58377214 -0.5625 17.5 C-1.44035156 17.48453125 -2.31820312 17.4690625 -3.22265625 17.453125 C-5.5 17.25 -5.5 17.25 -7.5 16.25 C-7.5 11.3 -7.5 6.35 -7.5 1.25 C-4.90541894 -0.04729053 -2.89552402 0.0457188 0 0 Z " fill="#101010" transform="translate(195.5,214.75)"/>
<path d="M0 0 C0.66 0.33 1.32 0.66 2 1 C1.0925 1.598125 0.185 2.19625 -0.75 2.8125 C-3.22901481 4.48106766 -5.63317911 6.17936855 -8 8 C-8 7.01 -8 6.02 -8 5 C-5.36740403 2.58085776 -3.40571201 1.13523734 0 0 Z " fill="#575757" transform="translate(240,61)"/>
</svg>
